<svg width="124" height="110" viewBox="0 0 124 110" fill="none" xmlns="http://www.w3.org/2000/svg">
<g clip-path="url(#clip0_352_72020)">
<path opacity="0.2" d="M45.9232 38.8004L51.7427 40.4391L45.9232 38.8004ZM96.0737 57.0975L97.7433 67.0482C97.915 68.071 97.8713 69.0483 97.6185 69.9348C98.1423 70.6633 98.4935 71.5189 98.647 72.4341C98.9227 74.0773 98.552 75.6629 97.5905 77.028C97.1177 77.6862 96.5197 78.2447 95.8306 78.6714C95.1415 79.098 94.3749 79.3845 93.5748 79.5144C92.7939 79.6455 92.0015 79.6262 91.2234 79.4524C90.5978 79.8493 89.9469 80.0955 89.2602 80.2107C88.3971 80.3555 87.5271 80.294 86.6649 80.0235C86.2877 79.9208 85.9284 79.7597 85.5916 79.5671C85.3315 79.8322 85.0534 80.0725 84.7439 80.2905C84.0001 80.8262 83.1512 81.1984 82.2531 81.3825C81.3551 81.5666 80.4282 81.5584 79.5336 81.3584C78.8943 81.7563 78.1921 82.0263 77.4515 82.1506C76.8038 82.2593 76.1372 82.2466 75.4803 82.1354C74.2389 81.9148 73.2103 81.3125 72.4665 80.4272C72.07 81.1994 71.479 81.8936 70.7299 82.462C69.9781 83.0403 69.1073 83.4445 68.1803 83.6455C67.2532 83.8465 66.2932 83.8393 65.3694 83.6244C65.2526 83.5886 65.1089 83.5574 64.9473 83.5015C64.1017 84.1553 63.0181 84.6277 61.8184 84.829C58.6515 85.3604 56.4399 84.6384 54.9607 83.6689C53.7234 85.3709 51.9029 86.4927 49.6664 86.868C46.5681 87.3878 44.6107 86.3741 43.5378 85.4333C42.3445 84.4194 41.4895 83.0654 41.0869 81.5524L41.0621 81.4044C40.981 81.0859 40.929 80.7764 40.8816 80.4938C40.0937 80.0305 39.3902 79.4369 38.8012 78.7383C37.4457 77.1116 36.4803 75.1538 35.9383 72.905C35.5256 71.0232 35.2634 69.4608 35.1226 68.044C35.0774 67.6918 35.0344 67.3531 34.9915 67.0974C34.8244 66.1015 34.8818 65.1233 35.1612 64.231C34.9459 64.4332 34.7037 64.6399 34.4413 64.8084C33.6383 65.3859 32.7404 65.7441 31.7979 65.9023C30.9227 66.0491 30.0316 66.0188 29.1367 65.8092C28.4856 65.6417 27.8726 65.371 27.3537 65.0014C25.9419 66.3314 24.1503 67.2131 22.0216 67.5703C19.9345 67.9205 14.7928 67.9945 11.9818 61.1424C10.5056 57.5421 9.94327 53.7041 10.306 49.7523C10.9941 42.7144 15.1115 40.9996 17.4961 40.5995C19.6384 40.24 21.6309 40.473 23.3958 41.2561C23.7702 40.7644 24.2402 40.3396 24.7763 39.9867C25.494 39.4789 26.3623 39.1256 27.2927 38.9695C28.2622 38.8069 29.2274 38.8663 30.1919 39.1611C30.5107 39.2459 30.8206 39.36 31.1058 39.492C31.3053 39.2787 31.5206 39.0765 31.7687 38.8965C31.7911 38.8651 31.8404 38.8291 31.8786 38.8089C32.372 38.4494 32.9082 38.1795 33.4736 38.0016C34.3411 35.573 35.9852 33.3171 38.7064 32.7775L38.8545 32.7527C40.6736 32.4474 43.1063 32.994 49.9404 34.9204C51.6422 35.4097 53.9659 36.0576 54.5756 36.1352C54.7036 36.1552 54.6183 36.1419 54.7328 36.1642C54.7597 36.1596 55.3054 36.194 56.1537 36.0517C56.357 36.0175 56.5567 35.9702 56.7564 35.9228C56.7766 35.878 56.7855 35.8488 56.8079 35.8173C57.927 32.8332 64.0434 27.1827 69.9265 25.5867C70.2159 25.4967 70.5234 25.4312 70.8465 25.377C74.404 24.7801 80.3916 25.7956 88.6248 28.3881L90.135 28.8819C90.5795 28.9733 90.9949 29.1388 91.4081 29.3739C91.59 29.4679 91.7473 29.5799 91.9045 29.6919C92.4933 30.148 93.2864 30.9973 93.7339 32.501C94.7048 35.7295 93.5071 40.5547 90.0305 47.2441C88.7612 49.671 87.2693 51.4309 85.5939 52.5021C86.0495 52.4948 86.4895 52.5594 86.9386 52.6777C88.429 51.8821 90.1697 51.6942 91.7956 52.1533C94.123 52.8144 95.658 54.6199 96.0737 57.0975Z" fill="black"/>
<path d="M92.0229 78.5473C92.4513 78.4775 96.1558 77.8172 99.8354 77.1222C101.681 76.7736 103.529 76.4146 104.961 76.1154C105.676 75.966 106.296 75.8299 106.762 75.7164C106.994 75.6599 107.199 75.6065 107.363 75.5577C107.479 75.5233 107.707 75.4552 107.883 75.3461C108.684 74.8502 109.379 74.201 109.929 73.436L109.934 73.428C111.044 71.8506 111.479 69.9996 111.159 68.0932C111.008 67.1914 110.691 66.3348 110.22 65.5715C110.412 64.6588 110.421 63.6924 110.256 62.7073L109.421 57.732L108.586 52.7566C108.408 51.6957 107.573 50.9594 106.759 50.4578C105.909 49.9336 104.836 49.5152 103.766 49.174C102.687 48.8297 101.555 48.5471 100.563 48.3119C100.282 48.2453 100.015 48.1833 99.7648 48.125C99.1095 47.9724 98.5655 47.8457 98.1649 47.7319L98.1634 47.7315C97.812 47.6322 97.3606 47.6126 96.9324 47.6166C96.4746 47.6208 95.9322 47.6549 95.3435 47.7095C94.164 47.819 92.7454 48.0163 91.3415 48.2514C89.9366 48.4867 88.531 48.7624 87.3759 49.0315C87.2358 49.0642 87.0988 49.0968 86.9655 49.1295C87.7821 48.173 88.5279 47.0422 89.2016 45.7519L89.2025 45.7503C90.961 42.3674 92.1664 39.4127 92.8049 36.8638C93.4417 34.3217 93.5329 32.1108 92.9769 30.2607C92.4612 28.5284 91.5311 27.5111 90.8008 26.9469L90.7874 26.9365L90.7736 26.9266C90.6213 26.8169 90.4164 26.6704 90.1708 26.5415C89.7022 26.2768 89.2126 26.0774 88.6799 25.9611L87.2205 25.4839L87.2205 25.4838L87.2102 25.4805C83.0666 24.1752 79.4645 23.2593 76.434 22.7457C73.4173 22.2344 70.9042 22.1105 68.9657 22.4357C68.6236 22.4931 68.2744 22.5659 67.9321 22.6712C64.8156 23.5206 61.6973 25.4179 59.2293 27.4557C57.9871 28.4813 56.8897 29.5588 56.0234 30.5845C55.2964 31.4454 54.6997 32.3078 54.3297 33.1004C54.3107 33.1039 54.2917 33.1072 54.2728 33.1104C53.8956 33.1737 53.5892 33.1974 53.3789 33.206C53.2739 33.2103 53.1919 33.2109 53.1352 33.2107C53.1301 33.2107 53.1253 33.2107 53.1207 33.2107C53.105 33.2078 53.092 33.2056 53.0832 33.2042L53.0152 33.1935L53.001 33.1913L52.9867 33.1894C52.7647 33.1612 52.1077 33.0025 51.211 32.7625C50.3498 32.532 49.3501 32.2496 48.5016 32.0056L48.4967 32.0043C45.0846 31.0418 42.7318 30.4125 40.9985 30.0643C39.2629 29.7157 38.0602 29.6291 36.9737 29.8114L36.8256 29.8362L36.811 29.8387L36.7965 29.8415C33.7612 30.4434 31.9545 32.833 30.9861 35.263C30.5051 35.4565 30.0462 35.7085 29.616 36.017C29.5516 36.0567 29.4704 36.1139 29.3898 36.1902C29.3118 36.2494 29.2369 36.3099 29.1649 36.3712C29.0301 36.3252 28.8926 36.2831 28.7534 36.2456C27.6456 35.9098 26.5281 35.8423 25.4121 36.0296C24.3477 36.2082 23.3421 36.6126 22.4974 37.2069C22.0998 37.4699 21.7281 37.7711 21.394 38.1104C19.6144 37.4694 17.6632 37.3159 15.6155 37.6595C14.2925 37.8815 12.458 38.473 10.8568 40.012C9.24306 41.5629 7.95875 43.9874 7.59568 47.7013L7.59566 47.7013L7.59513 47.7071C7.21775 51.814 7.80246 55.8139 9.34146 59.568L9.34155 59.5682C10.8372 63.2142 13.0055 65.1192 15.172 66.026C17.3055 66.9189 19.3215 66.7958 20.4719 66.6028C22.5063 66.2615 24.2821 65.4726 25.7455 64.2818C26.198 64.5171 26.681 64.6969 27.1738 64.8237L27.184 64.8263L27.1943 64.8287C28.2136 65.0681 29.2387 65.1042 30.2483 64.9348C30.9165 64.8226 31.5684 64.6225 32.1886 64.3285C32.2012 64.6542 32.2352 64.9818 32.2902 65.3092C32.3277 65.533 32.3665 65.8345 32.4108 66.1796L32.4139 66.2035C32.5597 67.6646 32.8294 69.2642 33.2464 71.1654L33.2486 71.1755L33.251 71.1856C33.8262 73.572 34.8578 75.6695 36.3173 77.4241L36.3216 77.4292C36.8819 78.0938 37.5344 78.6738 38.2585 79.1519C38.2887 79.3117 38.3242 79.4817 38.3674 79.6556L38.3856 79.7642L38.3934 79.8106L38.4055 79.856C38.8602 81.5633 39.8248 83.0913 41.1705 84.2363C42.4499 85.357 44.7035 86.4732 48.1167 85.9005C50.2809 85.5373 52.1213 84.5355 53.4841 83.0103C55.1265 83.8569 57.3534 84.3506 60.2688 83.8615C61.4319 83.6663 62.5126 83.2429 63.4193 82.6427L63.4277 82.6446C64.4956 82.8931 65.6054 82.9014 66.677 82.669C67.7474 82.437 68.753 81.9705 69.6214 81.3033C70.1201 80.925 70.5616 80.4949 70.936 80.0222C71.6907 80.5952 72.5882 80.9881 73.5919 81.1661L73.599 81.1673C74.3516 81.2952 75.1315 81.3123 75.9018 81.1831C76.6406 81.0591 77.3448 80.8124 77.9963 80.458C78.9045 80.6102 79.8343 80.5938 80.7388 80.4084C81.7734 80.1963 82.7515 79.7679 83.6088 79.1514C83.7622 79.0432 83.9086 78.9305 84.049 78.8135C84.2472 78.8968 84.4538 78.9701 84.6682 79.0295C85.6713 79.3412 86.6944 79.4137 87.7106 79.2432C88.4016 79.1272 89.0605 78.8987 89.6903 78.5521C90.4656 78.6795 91.2499 78.6768 92.0229 78.5473ZM92.0229 78.5473C92.0237 78.5472 92.0244 78.547 92.0252 78.5469L91.8597 77.5607L92.02 78.5478C92.0209 78.5476 92.0219 78.5475 92.0229 78.5473Z" fill="#86EC46" stroke="#6435E9" stroke-width="2"/>
<path d="M48.1386 76.4488C47.8985 75.0181 48.1565 71.6934 48.3797 69.5514L48.2363 69.5302C47.0609 75.8602 45.6837 78.6258 44.2555 78.8655C43.2127 79.0404 41.9431 78.2804 41.6255 76.3875C41.042 72.9098 43.1739 68.2524 48.5571 66.5797C48.6197 65.9808 48.6376 65.2536 48.5785 64.9015C48.5194 64.5493 48.3501 64.374 48.1234 64.4121C47.8514 64.4577 47.5098 64.9224 47.0876 65.74L46.8245 65.4221C47.7105 63.7572 48.7311 62.4771 50.0459 62.2565C50.8393 62.1233 51.4757 62.5823 51.6714 63.7489C51.93 65.2896 50.6413 72.6117 51.0032 74.7687C51.0586 75.0989 51.2052 75.278 51.4092 75.2437C51.7266 75.1905 52.0682 74.7258 52.5246 73.8345L52.8331 74.1449C51.9803 76.0079 51.0073 77.71 49.6925 77.9306C48.9217 78.0599 48.3306 77.5933 48.1386 76.4488ZM45.4393 76.3359C46.3007 76.1914 47.1799 74.3466 48.4606 67.1164C45.325 68.5703 44.1356 72.5944 44.5714 75.1917C44.7154 76.0501 45.0539 76.4006 45.4393 76.3359Z" fill="#6435E9"/>
<path d="M58.8755 65.3236C57.742 65.5138 56.9183 67.6887 56.8495 69.918C59.1722 68.7589 60.3103 67.3459 60.1552 66.4214C60.0444 65.7611 59.4876 65.2209 58.8755 65.3236ZM62.6451 65.981C62.9 67.4998 60.8783 68.9252 56.8411 70.1457C56.8317 70.6452 56.8676 71.137 56.9488 71.6213C57.2775 73.5802 58.3552 74.1688 59.466 73.9824C60.4861 73.8112 61.5394 72.8651 62.2672 71.091L62.6405 71.232C62.0082 73.7143 60.5001 76.1172 58.1425 76.5128C56.2609 76.8285 54.2716 75.6687 53.858 73.2035C53.2302 69.4617 55.2657 65.3409 59.845 64.5726C61.4318 64.3063 62.4826 65.0126 62.6451 65.981Z" fill="#6435E9"/>
<path d="M63.6549 76.3573C65.0931 76.4554 66.5993 76.5421 68.9981 76.2528C70.3883 76.0648 70.9034 75.6615 70.842 73.9067C70.7591 72.857 70.5259 71.6062 70.4657 70.5527C70.3764 69.1872 70.5496 67.3025 70.695 65.8071L70.5289 65.7897C69.3803 72.0021 68.1433 74.6311 66.7378 74.8669C65.627 75.0533 64.282 74.2606 63.957 72.3237C63.2922 68.3618 66.3409 62.9169 74.1404 62.3097C73.6905 65.4629 73.4474 68.8756 73.3463 70.6351C73.1322 74.3597 69.8097 78.3117 66.5 78.8671C64.6864 79.1714 63.235 78.5776 63.6549 76.3573ZM67.7671 72.2501C68.5379 72.1208 69.2827 70.8643 70.3401 65.7761L70.3365 65.7541C70.5014 65.0702 70.6515 64.2982 70.8096 63.4343C67.7462 64.763 66.388 68.476 66.7942 70.8971C66.9604 71.8876 67.3364 72.3224 67.7671 72.2501Z" fill="#6435E9"/>
<path d="M80.6368 61.6723C79.5033 61.8625 78.6795 64.0374 78.6107 66.2667C80.9335 65.1076 82.0715 63.6946 81.9164 62.7701C81.8056 62.1098 81.2488 61.5696 80.6368 61.6723ZM84.4064 62.3297C84.6612 63.8484 82.6395 65.2739 78.6023 66.4944C78.5929 66.9939 78.6288 67.4857 78.7101 67.9699C79.0387 69.9289 80.1164 70.5175 81.2272 70.3311C82.2474 70.1599 83.3006 69.2138 84.0285 67.4397L84.4017 67.5807C83.7694 70.063 82.2613 72.4659 79.9037 72.8614C78.0222 73.1772 76.0329 72.0173 75.6192 69.5522C74.9914 65.8104 77.027 61.6896 81.6062 60.9213C83.1931 60.655 84.2439 61.3613 84.4064 62.3297Z" fill="#6435E9"/>
<path d="M89.9102 61.4289C90.1281 62.7275 89.6667 65.9505 89.4133 68.0523L89.5568 68.0735C90.8118 61.6623 92.207 59.1426 94.0659 58.8306C95.3127 58.6214 96.1141 59.3695 96.3099 60.5361C96.6053 62.2969 95.4349 66.2952 95.6122 67.3517C95.6602 67.6378 95.8257 67.7911 96.0298 67.7569C96.3245 67.7074 96.6887 67.239 97.1225 66.3515L97.4309 66.6618C96.6008 68.521 95.6051 70.2269 94.2903 70.4475C93.3835 70.5997 92.6944 70.1043 92.4876 68.8717C92.1774 67.0228 93.5013 63.3835 93.2464 61.8648C93.191 61.5346 92.9538 61.3708 92.6818 61.4164C91.6843 61.5838 90.3976 63.3612 89.2661 71.0642L86.047 71.6044C86.4906 69.1085 87.1975 63.8755 87.0276 62.863C86.9833 62.5989 86.8404 62.4418 86.6364 62.476C86.3417 62.5255 85.9964 62.9681 85.5437 63.8814L85.2125 63.5749C86.0616 61.6899 87.0384 60.0098 88.3532 59.7892C89.1013 59.6637 89.6997 60.1743 89.9102 61.4289Z" fill="#6435E9"/>
<path d="M104.055 67.0892C103.763 65.3504 99.2147 63.9411 98.8269 61.63C98.5093 59.7371 100.17 57.829 103.049 57.346C105.362 56.958 106.329 57.7235 106.488 58.6699C106.588 59.2642 106.556 59.6316 106.202 60.3019L106.089 60.321C104.844 59.1495 102.941 58.0883 101.785 58.2823C101.173 58.385 100.819 58.9195 100.908 59.4478C101.218 61.2966 106.066 62.4068 106.48 64.872C106.786 66.6988 104.88 68.6708 101.615 69.2185C99.1215 69.6369 98.1319 68.7393 97.9509 67.6608C97.8401 67.0005 98.0235 66.4266 98.3392 65.8079L98.4716 65.763C99.6975 67.0962 101.807 68.4169 103.122 68.1963C103.893 68.0669 104.151 67.6615 104.055 67.0892Z" fill="#6435E9"/>
<path d="M72.197 40.505C71.7183 40.5231 71.0936 40.7109 70.7508 41.9764C70.3684 43.3938 67.1438 53.7299 60.6385 51.5518C60.6385 51.5518 58.0755 51.2927 55.1957 45.6227C54.0033 43.2769 52.1214 41.459 49.8758 40.8644C49.8455 40.8564 49.8151 40.8486 49.7847 40.841C46.743 40.0728 40.9041 37.3941 37.9085 36.3968C37.5787 36.2875 37.1227 36.1689 37.0901 37.6826C37.0573 39.1949 37.4615 41.8433 36.6135 42.5155C36.1309 42.8981 35.0666 42.0832 35.0737 40.4175C35.0794 38.7519 35.8825 35.2134 37.7882 34.8383C39.6938 34.4632 50.3497 38.0536 52.416 38.2562C52.416 38.2562 54.3448 38.5552 57.3084 37.5958C60.2702 36.6339 64.3831 35.5771 68.4646 37.1629C68.5517 37.1953 68.5917 37.2357 68.7999 37.3377C70.1823 38.0107 71.7516 37.7349 72.9379 36.6863C73.3902 36.288 73.8578 35.8982 74.1234 35.7485C77.3205 33.9529 86.4679 30.1945 87.7097 30.9949C87.7097 30.9949 90.128 32.9081 84.6775 43.3935C79.2269 53.879 73.2826 41.6941 73.2826 41.6941C73.2826 41.6941 72.6414 40.4886 72.197 40.505Z" fill="#A286F2"/>
<path d="M84.6732 43.3934C79.2316 53.8828 73.279 41.698 73.279 41.698C73.279 41.698 72.6412 40.4878 72.1952 40.5031C71.7196 40.5234 71.0934 40.7184 70.7501 41.9729C70.3745 43.3974 67.1377 53.7273 60.6352 51.557C60.6352 51.557 58.0762 51.2973 55.1903 45.6159C54.0037 43.2718 52.1286 41.4611 49.872 40.867L49.7771 40.8373C46.7446 40.0745 40.9043 37.3877 37.908 36.3947C37.5755 36.2858 37.1209 36.167 37.0903 37.6845C37.0609 39.2004 37.4586 41.8429 36.6146 42.5227C36.1358 42.8867 35.1416 42.1265 35.0761 40.5809C35.3877 41.547 36.0992 41.9506 36.4706 41.6641C37.3168 40.9977 36.9168 38.3418 36.946 36.8245C36.9795 35.3245 37.4339 35.442 37.7665 35.5509C40.7628 36.5439 46.6005 39.2159 49.6355 39.9935C49.6676 40.0033 49.6997 40.0131 49.728 40.0084C51.9845 40.6025 53.8621 42.428 55.0487 44.7721C57.9321 50.4387 60.4911 50.6984 60.4911 50.6984C66.9962 52.8834 70.2304 42.5388 70.6083 41.1277C70.9493 39.8598 71.5756 39.6648 72.0536 39.6593C72.4996 39.6439 73.1349 40.8394 73.1349 40.8394C73.1349 40.8394 79.0875 53.0242 84.5314 42.5482C87.6667 36.5152 88.2089 33.3275 88.087 31.7014C88.4572 32.9261 88.4894 36.063 84.6732 43.3934Z" fill="#6435E9"/>
<path d="M59.7422 36.9936C60.159 37.1589 60.6559 37.1171 61.1644 36.7896L61.1864 36.7887C61.292 36.7336 61.3755 36.6532 61.4589 36.5728C62.5086 35.6093 63.3311 33.7542 65.1312 31.991C66.9536 30.2282 68.1296 29.209 70.2761 29.2875C72.0318 29.3554 78.4227 31.8834 80.6612 32.7821C83.5449 31.6521 86.3708 30.7546 87.4164 30.8973C85.4657 30.245 73.6813 26.3888 69.2852 27.5733C64.5016 28.8741 59.5206 33.7336 58.9436 35.2209C58.6253 36.0298 59.0415 36.7612 59.7422 36.9936Z" fill="#A286F2"/>
<path d="M87.4129 30.9008C86.372 30.7613 83.5427 31.6553 80.661 32.7808C78.4151 31.8875 72.0312 29.3514 70.268 29.2888C68.1303 29.2131 66.9529 30.2325 65.1366 31.9901C63.3374 33.7587 62.509 35.6038 61.4589 36.5728C61.3811 36.6454 61.2923 36.735 61.1801 36.7843L61.1667 36.7865C60.651 37.1124 60.1667 37.1632 59.7479 36.9941C59.147 36.7961 58.7719 36.2599 58.8419 35.6047C59.0082 35.9141 59.2885 36.1465 59.6235 36.2526C60.0422 36.4217 60.5263 36.3695 61.042 36.0436L61.0555 36.0414C61.1679 35.9935 61.2567 35.9038 61.3343 35.8299C62.3844 34.8609 63.2128 33.0158 65.012 31.2473C66.8285 29.491 68.0056 28.4702 70.1434 28.546C71.6419 28.5989 76.4746 30.4378 79.2731 31.5387C80.0818 31.8561 80.979 31.8656 81.7944 31.5654C83.255 31.0297 84.6311 30.5843 85.6863 30.3381C86.4779 30.5927 87.079 30.7921 87.4129 30.9008Z" fill="#6435E9"/>
<path d="M69.3957 39.8327C68.2401 36.8067 57.6329 38.325 56.8184 42.0025C56.2272 44.667 59.2216 51.0359 62.8887 50.3999C67.0183 49.682 70.5605 42.8805 69.3957 39.8327Z" fill="url(#paint0_linear_352_72020)"/>
<path d="M62.8953 50.398C59.6662 50.955 56.9664 46.1099 56.7492 43.1244C57.505 46.0196 59.8901 49.5255 62.6682 49.0441C66.2451 48.4149 69.4113 43.1847 69.4028 39.8335C70.5564 42.8722 67.0108 49.6784 62.8953 50.398Z" fill="#2D2C2C"/>
<path d="M85.5761 34.2697C84.1957 31.9831 74.7629 36.2017 74.6052 39.4203C74.4913 41.7529 77.4679 47.5464 80.4122 46.29C83.7284 44.8743 86.9687 36.571 85.5761 34.2697Z" fill="url(#paint1_linear_352_72020)"/>
<path d="M80.414 46.2921C77.536 47.5221 74.6413 42.0525 74.6068 39.6189C75.3358 42.2639 77.7701 45.9719 80.1866 44.9369C82.9498 43.7399 85.6749 37.7618 85.6788 34.4846C86.7937 37.0206 83.6407 44.9121 80.414 46.2921Z" fill="#2D2C2C"/>
<path d="M50.026 38.4846C50.0133 38.5324 49.7989 38.5172 49.6822 38.4981C49.2292 38.4219 48.6091 38.2824 48.4553 38.2404C48.4508 38.2384 48.4317 38.2319 45.6756 37.4573C45.5106 37.4072 45.3468 37.353 45.1845 37.2948C44.9527 37.2154 44.7228 37.1303 44.4952 37.0397C44.3852 36.9945 44.1941 36.8951 44.2066 36.8459C44.2207 36.7979 44.4364 36.8129 44.5531 36.8321C45.0048 36.9085 45.6339 37.052 45.7879 37.0953L48.2039 37.7734L48.5584 37.873C48.7124 37.9164 49.3142 38.1198 49.739 38.292C49.849 38.3372 50.0399 38.4353 50.026 38.4846ZM81.8589 30.21C81.8392 30.2576 81.5727 30.1958 81.4282 30.1509L79.8949 29.6845L79.4414 29.5392C78.995 29.412 78.1153 29.1196 76.3126 28.7967L75.6645 28.6716L74.7392 28.4948C74.5892 28.4674 74.3243 28.3984 74.3283 28.3479C74.3336 28.2972 74.6079 28.2816 74.7605 28.2837C75.3542 28.2906 76.1847 28.3892 76.3888 28.4255C78.2202 28.7547 79.1076 29.0514 79.5579 29.1778L80.0128 29.3229C80.2102 29.3853 80.9801 29.6836 81.5067 29.9509C81.6433 30.0221 81.8791 30.1651 81.8589 30.21ZM86.2518 38.0656C86.2035 38.0501 86.2393 37.7771 86.2681 37.627C86.3865 37.0453 86.585 36.2482 86.6432 36.0503L86.7801 35.5873L87.0814 34.5281C87.1864 34.0566 87.3683 33.3176 86.8882 32.6261C86.8349 32.5562 86.6958 32.3706 86.4562 32.2627C86.1953 32.1485 85.9026 32.1291 85.6288 32.2078C85.4892 32.234 85.2624 32.3593 85.2279 32.3263C85.1874 32.2916 85.391 32.0693 85.551 32.0078C85.8296 31.8738 86.1461 31.8406 86.4465 31.9139C86.7468 31.9871 87.0124 32.1623 87.198 32.4095C87.7966 33.3039 87.5463 34.1387 87.4457 34.6288L87.1436 35.6993L87.0087 36.1578C86.9505 36.3557 86.688 37.1345 86.4747 37.6864C86.4185 37.83 86.2998 38.0796 86.2518 38.0656ZM73.6087 37.3269C73.6449 37.3609 73.5573 37.5154 73.4941 37.5924C73.2596 37.8946 72.8306 38.2254 72.7108 38.287L72.4313 38.4363C72.1607 38.5398 71.5806 38.9194 70.3442 38.7948C70.198 38.7718 70.0544 38.7342 69.9156 38.6827C69.7184 38.6139 69.5312 38.5192 69.3589 38.4011C69.2747 38.3447 69.15 38.212 69.1791 38.1711C69.2069 38.1305 69.3706 38.1819 69.4584 38.2101C69.7936 38.3434 70.2814 38.4123 70.4031 38.4196C71.5012 38.5287 72.023 38.1893 72.2671 38.093L72.5174 37.9597C72.6269 37.9026 73.0535 37.6566 73.3462 37.4373C73.4229 37.383 73.5712 37.293 73.6087 37.3269ZM80.1441 36.2441C80.1428 36.2942 79.944 36.3386 79.8374 36.3634C79.4119 36.4348 78.8636 36.6403 78.7297 36.7001C78.7297 36.7001 78.7191 36.695 78.4142 36.8333C78.1271 36.9866 77.4708 37.2503 76.6187 38.2858L76.3134 38.6608C76.1959 38.8188 76.0509 39.0189 75.9045 39.2192C75.838 39.3092 75.71 39.4705 75.6633 39.4479C75.6184 39.4277 75.6716 39.2251 75.7157 39.1167C75.8766 38.6981 76.2227 38.1613 76.3274 38.0427C77.2362 36.941 77.949 36.6512 78.2552 36.4878L78.5937 36.3438C78.7391 36.2779 79.3649 36.1217 79.8208 36.149C79.9376 36.1515 80.1454 36.1941 80.1441 36.2441ZM62.0145 39.8769C62.013 39.9256 61.8158 39.9712 61.7076 39.9948C61.2821 40.0662 60.734 40.2731 60.6014 40.3327C60.6014 40.3327 60.5895 40.3277 60.2846 40.4661C59.9975 40.6194 59.3412 40.8831 58.4891 41.9186L58.1849 42.292L57.7749 42.852C57.7084 42.942 57.5815 43.1017 57.535 43.0804C57.4899 43.0589 57.5417 42.8565 57.5861 42.7495C57.747 42.3309 58.0944 41.7938 58.1991 41.6753C59.1079 40.5736 59.8193 40.284 60.1256 40.1205L60.4655 39.9763C60.6108 39.9104 61.2353 39.7545 61.6912 39.7817C61.8093 39.7841 62.0156 39.8256 62.0145 39.8769Z" fill="#86EC46"/>
<path d="M56.1166 51.7791C55.7326 52.1065 55.3379 52.4522 55.087 52.9039C54.8199 53.3416 54.622 53.8453 54.5525 54.3883C54.4642 55.0261 54.4881 55.6744 54.6233 56.3039C54.6592 56.4846 54.4059 56.5673 54.3346 56.398C54.0538 55.752 53.8879 55.062 53.8443 54.3591C53.8039 53.7121 53.8988 53.0638 54.123 52.4554C54.325 51.8279 54.7094 51.2888 55.1201 50.7744C55.2314 50.6312 55.3918 50.5341 55.5704 50.5018C55.7489 50.4696 55.9331 50.5044 56.0875 50.5996C56.1803 50.6603 56.2576 50.7416 56.3135 50.8373C56.3694 50.933 56.4022 51.0403 56.4095 51.1509C56.4168 51.2614 56.3983 51.3721 56.3554 51.4743C56.3125 51.5765 56.2465 51.6673 56.1625 51.7396L56.1166 51.7791Z" fill="#6435E9"/>
<path d="M48.9569 55.3802C49.4472 55.2661 49.9618 55.1563 50.4745 55.2252C50.9847 55.2711 51.5081 55.4116 51.9851 55.6802C52.5502 55.9895 53.0569 56.3952 53.482 56.8791C53.6045 57.0149 53.8225 56.8621 53.7294 56.7034C53.3779 56.0929 52.9226 55.5484 52.3838 55.0944C51.8883 54.6758 51.3109 54.3651 50.6885 54.182C50.0647 53.9712 49.4008 53.9581 48.7445 53.9824C48.563 53.9862 48.3892 54.057 48.2567 54.1812C48.1242 54.3053 48.0423 54.4741 48.0267 54.6549C48.0202 54.7655 48.0395 54.8761 48.0831 54.978C48.1267 55.0799 48.1934 55.1703 48.278 55.2419C48.3625 55.3136 48.4625 55.3647 48.5702 55.3911C48.6779 55.4176 48.7902 55.4186 48.8984 55.3942L48.9569 55.3802Z" fill="#6435E9"/>
<path d="M57.875 53.5642C57.5946 53.6832 57.2964 53.8121 57.0673 54.0305C56.8149 54.2469 56.6124 54.5155 56.4739 54.8177C56.2995 55.1994 56.1934 55.6087 56.1605 56.0271C56.1454 56.2012 55.8967 56.2125 55.8584 56.0418C55.7521 55.5778 55.7289 55.0988 55.7898 54.6267C55.8397 54.1977 55.9957 53.7661 56.2325 53.3708C56.4561 52.9707 56.7889 52.652 57.1394 52.3566C57.2779 52.237 57.4557 52.1729 57.6387 52.1767C57.8216 52.1805 57.9966 52.2519 58.1299 52.3772C58.2137 52.4601 58.2758 52.5622 58.3108 52.6747C58.3457 52.7873 58.3525 52.9066 58.3305 53.0224C58.3085 53.1381 58.2584 53.2467 58.1846 53.3385C58.1107 53.4304 58.0155 53.5027 57.9071 53.5492L57.875 53.5642Z" fill="#6435E9"/>
<path d="M49.3419 57.8553C49.6053 57.7004 49.8866 57.537 50.1974 57.4835C50.5062 57.4178 50.8455 57.4024 51.1847 57.4769C51.5787 57.5561 51.973 57.7196 52.3434 57.9467C52.4903 58.0382 52.6476 57.8458 52.5342 57.714C52.2251 57.3518 51.8544 57.0472 51.439 56.8143C51.047 56.5947 50.6131 56.4601 50.1656 56.4192C49.7114 56.3612 49.2565 56.4389 48.8104 56.5442C48.6319 56.5842 48.4746 56.6888 48.3687 56.8379C48.2628 56.987 48.2159 57.17 48.2371 57.3516C48.2535 57.4684 48.2984 57.5794 48.3679 57.6747C48.4374 57.7701 48.5292 57.8469 48.6354 57.8984C48.7415 57.9499 48.8588 57.9745 48.9767 57.97C49.0946 57.9656 49.2096 57.9322 49.3116 57.8728L49.3419 57.8553Z" fill="#6435E9"/>
<path d="M15.86 60.2112C16.213 57.6945 16.1327 52.8596 15.9382 48.7966C15.9308 48.4879 15.9269 48.2007 15.9266 47.9351L14.9356 48.1014L14.9888 47.4947L15.9799 47.3284C16.3288 44.3918 18.1589 42.8893 19.4515 42.6724C20.4425 42.5061 20.63 43.2274 20.6492 44.5303C20.1357 44.5058 19.0727 44.507 18.3617 44.6263C17.1984 44.8215 16.7429 45.4072 16.8585 46.0962C16.9488 46.6345 17.5416 46.8671 18.1773 46.9597L20.741 46.5295L20.7093 47.1326L18.7058 47.4688C18.9897 51.2733 19.2813 55.5193 18.9906 59.3316C18.8487 60.9937 17.2263 61.8858 14.6628 62.4488L14.5653 62.0002C15.4233 61.7013 15.746 61.1158 15.86 60.2112Z" fill="#6435E9"/>
<path d="M25.7542 56.8685C23.8583 57.1866 21.8932 56.4315 21.4343 53.6969C20.7443 49.5842 22.6871 45.9816 26.5003 45.3418C28.3962 45.0237 30.3614 45.7788 30.8202 48.5134C31.4994 52.5615 29.5674 56.2286 25.7542 56.8685ZM25.9013 45.9958C24.5655 46.2199 23.9168 51.0665 24.419 54.0595C24.6683 55.5452 25.4664 56.3412 26.4358 56.1785C27.7285 55.9616 28.5469 51.9943 27.8965 48.1184C27.6798 46.8265 26.8923 45.8295 25.9013 45.9958Z" fill="#6435E9"/>
<path d="M35.8664 54.9504L32.6994 55.4817C33.189 53.1193 33.8234 48.3194 33.5922 46.9413C33.5452 46.6614 33.4122 46.5288 33.2183 46.5613C32.9383 46.6083 32.6119 47.0394 32.1854 47.9301L31.8907 47.6253C32.6681 45.7902 33.5715 44.1775 34.821 43.9678C35.4889 43.8558 35.9527 44.3757 36.1333 45.4523C36.3573 46.7873 36.1237 50.1474 35.9211 52.2403L36.1043 52.2759C37.082 46.0901 37.7043 43.4619 38.9107 43.2595C39.8586 43.1004 40.3412 44.3921 40.5369 46.2189C37.941 46.7209 36.9184 47.623 35.8664 54.9504Z" fill="#6435E9"/>
<path d="M42.2464 52.3157C42.5189 51.9185 42.8712 51.6505 43.3142 51.5346C43.7594 51.4157 44.1414 51.6214 44.4521 52.1282C45.2095 53.3668 45.5719 54.3798 45.5344 55.2038C45.5037 55.9949 45.2907 56.6145 44.9051 57.0805C44.5098 57.5301 44.16 57.8462 43.841 58.0408C43.5398 58.2256 43.2664 58.2382 43.022 58.0523C42.907 57.9652 42.812 57.8544 42.7434 57.7275C42.6748 57.6006 42.6343 57.4604 42.6244 57.3165C42.5698 57.0157 42.7069 56.7769 42.9692 56.6153C43.3837 56.3631 43.4542 55.9334 43.1658 55.337C42.8854 54.7053 42.5625 54.0933 42.1995 53.5052C41.9704 53.1299 41.9871 52.7342 42.2464 52.3157Z" fill="#6435E9"/>
</g>
<defs>
<linearGradient id="paint0_linear_352_72020" x1="59.7792" y1="37.7895" x2="69.9092" y2="52.2476" gradientUnits="userSpaceOnUse">
<stop/>
<stop offset="1" stop-color="#2D2C2C"/>
</linearGradient>
<linearGradient id="paint1_linear_352_72020" x1="88.057" y1="43.6747" x2="57.1558" y2="25.51" gradientUnits="userSpaceOnUse">
<stop/>
<stop offset="1" stop-color="#2D2C2C"/>
</linearGradient>
<clipPath id="clip0_352_72020">
<rect width="109.225" height="92.7926" fill="white" transform="translate(0 18.0742) rotate(-9.52491)"/>
</clipPath>
</defs>
</svg>
